<?xml version="1.0" encoding="UTF-8" standalone="no"?>
<!DOCTYPE svg PUBLIC "-//W3C//DTD SVG 1.1//EN" "http://www.w3.org/Graphics/SVG/1.1/DTD/svg11.dtd">
<svg width="100%" height="100%" viewBox="0 0 709 929" version="1.1" xmlns="http://www.w3.org/2000/svg" xmlns:xlink="http://www.w3.org/1999/xlink" xml:space="preserve" xmlns:serif="http://www.serif.com/" style="fill-rule:evenodd;clip-rule:evenodd;stroke-linejoin:round;stroke-miterlimit:2;">
    <g transform="matrix(1,0,0,1,-143.766,-36.8368)">
        <path d="M194.097,488.454L218.066,914.75L376.635,784.006L247.029,589.442C246.846,589.167 246.667,588.888 246.494,588.607C226.906,556.832 207.875,523.784 194.097,488.454ZM777.721,914.75L802.073,488.972C789.903,520.013 772.664,550.566 751.658,585.039C751.455,585.372 751.245,585.701 751.029,586.026L619.02,783.722L777.721,914.75ZM270.502,573.806C235.412,516.885 201.268,455.921 201.268,383.514C201.268,219.955 334.057,87.167 497.615,87.167C661.174,87.167 793.962,219.955 793.962,383.514C793.962,454.318 767.724,504.471 727.573,570.364L497.615,914.75L270.502,573.806ZM497.615,204.894C596.198,204.894 676.235,284.931 676.235,383.514C676.235,482.097 596.198,562.134 497.615,562.134C399.032,562.134 318.995,482.097 318.995,383.514C318.995,284.931 399.032,204.894 497.615,204.894Z" style="fill:rgb(0,4,133);"/>
        <path d="M159.41,451.997C149.013,461.885 142.991,476.08 143.846,491.28L167.815,917.575C168.88,936.517 180.506,953.25 197.886,960.857C215.266,968.464 235.447,965.651 250.084,953.582L387.522,840.261L455.728,942.652C465.055,956.655 480.763,965.07 497.587,965.08C514.412,965.089 530.129,956.691 539.472,942.699L608.077,839.955L745.678,953.561C760.305,965.638 780.48,968.465 797.864,960.873C815.247,953.282 826.886,936.561 827.969,917.624L852.321,491.846C853.195,476.567 847.12,462.297 836.633,452.391C841.641,430.813 844.292,408.242 844.292,383.514C844.292,192.178 688.951,36.837 497.615,36.837C306.279,36.837 150.938,192.178 150.938,383.514C150.938,407.319 154.032,430.091 159.41,451.997ZM194.097,488.454L218.066,914.75L376.635,784.006L247.029,589.442C246.846,589.167 246.667,588.888 246.494,588.607C226.906,556.832 207.875,523.784 194.097,488.454ZM777.721,914.75L802.073,488.972C789.903,520.013 772.664,550.566 751.658,585.039C751.455,585.372 751.245,585.701 751.029,586.026L619.02,783.722L777.721,914.75ZM270.502,573.806C235.412,516.885 201.268,455.921 201.268,383.514C201.268,219.955 334.057,87.167 497.615,87.167C661.174,87.167 793.962,219.955 793.962,383.514C793.962,454.318 767.724,504.471 727.573,570.364L497.615,914.75L270.502,573.806ZM497.615,204.894C596.198,204.894 676.235,284.931 676.235,383.514C676.235,482.097 596.198,562.134 497.615,562.134C399.032,562.134 318.995,482.097 318.995,383.514C318.995,284.931 399.032,204.894 497.615,204.894ZM497.615,255.224C568.42,255.224 625.905,312.709 625.905,383.514C625.905,454.319 568.42,511.804 497.615,511.804C426.81,511.804 369.325,454.319 369.325,383.514C369.325,312.709 426.81,255.224 497.615,255.224Z" style="fill:white;"/>
    </g>
</svg>
